# xmcd
#
# Track frame offsets:
#	150
#	17805
#	35695
#	53044
#	69540
#	92131
#	109413
#	124003
#	144703
#	164193
#	188623
#	209777
#	224719
#	246653
#	264221
#	282213
#	298657
#	315080
#
# Disc length: 4448 seconds
#
# Revision: 1
# Processed by: cddbd v1.5.2PL0 Copyright (c) Steve Scherf et al.
# Submitted via: audiograbber 1.83.01
#
DISCID=25115e12
DTITLE=JonesTM - HC200740
DYEAR=2007
DGENRE=Country
TTITLE0=Crossin Dixon - Make You Mine
TTITLE1=Luke Bryan - We Rode In Trucks [Edit]
TTITLE2=Vince Gill - How Lonely Looks [Radio Edit]
TTITLE3=Travis Tritt - Something Stronger Than Me
TTITLE4=Dwight Yoakam - Close Up The Honky Tonks
TTITLE5=Jerrod Niemann - The One That Got Away [Radio Edit]
TTITLE6=Townsend O'Donnell - Cowboys Want It (Cowgirls Got It)
TTITLE7=Elisabeth Withers - Heartstrings
TTITLE8=Mary J. Blige - Just Fine [Main Version]
TTITLE9=Justin Timberlake Duet With Beyonce - Until The End Of Time
TTITLE10=Peabo Bryson - Count On Me [Album Version]
TTITLE11=Darlene McCoy - Simply Because
TTITLE12=Marvin Winans Feat. Kim Burrell And Take 6 - Try
TTITLE13=Stanley Clarke Feat. Esperanza Spalding - All Over Again
TTITLE14=Chaka Khan With Michael McDonald - You Belong To Me
TTITLE15=Queen Latifah - Poetry Man [Radio Edit Without Sax]
TTITLE16=Queen Latifah - Poetry Man [Radio Edit With Sax]
TTITLE17=Audio Caviar - Dominique [Radio Mix]
EXTD=
EXTT0=
EXTT1=
EXTT2=
EXTT3=
EXTT4=
EXTT5=
EXTT6=
EXTT7=
EXTT8=
EXTT9=
EXTT10=
EXTT11=
EXTT12=
EXTT13=
EXTT14=
EXTT15=
EXTT16=
EXTT17=
PLAYORDER=
